<svg width="23" height="18" viewBox="0 0 23 18" fill="none" xmlns="http://www.w3.org/2000/svg">
<path d="M22.1929 3.94831C21.9694 3.76462 21.6979 3.64646 21.4095 3.60731C21.1211 3.56823 20.8272 3.60977 20.5616 3.72715L15.6218 5.88893L12.7456 0.791385C12.6103 0.551539 12.4122 0.351693 12.1721 0.212539C11.9319 0.073385 11.6584 0 11.3797 0C11.1011 0 10.8275 0.073385 10.5873 0.212539C10.3472 0.351693 10.1492 0.551539 10.0139 0.791385L7.13756 5.88885L2.19701 3.72677C1.93115 3.61046 1.63763 3.56954 1.34951 3.60862C1.06131 3.64769 0.789899 3.76515 0.565915 3.94785C0.341852 4.13054 0.174119 4.37115 0.0813842 4.64262C-0.0112721 4.91416 -0.0251009 5.20569 0.0413835 5.48454L2.52631 15.9012C2.57357 16.1028 2.66209 16.2928 2.78646 16.4597C2.91091 16.6265 3.06849 16.7667 3.24974 16.8715C3.43193 16.9771 3.63381 17.0456 3.84341 17.0728C4.05295 17.1002 4.26599 17.0857 4.46982 17.0303C8.99029 15.8015 13.7644 15.8011 18.2851 17.029C18.4888 17.0843 18.7017 17.0987 18.9112 17.0715C19.1207 17.0442 19.3225 16.9758 19.5046 16.8702C19.6857 16.7655 19.8433 16.6255 19.9677 16.4587C20.0921 16.292 20.1806 16.1021 20.228 15.9006L22.7172 5.48539C22.7849 5.20654 22.7717 4.91454 22.679 4.64277C22.5863 4.371 22.4179 4.13039 22.1929 3.94831ZM15.2817 12.5041C15.2711 12.6046 15.2404 12.7021 15.1915 12.7909C15.1426 12.8798 15.0764 12.9582 14.9966 13.0218C14.9169 13.0854 14.8251 13.1328 14.7267 13.1615C14.6283 13.1902 14.5251 13.1994 14.423 13.1886C12.3997 12.9795 10.3597 12.9795 8.33646 13.1886C8.13076 13.2092 7.92521 13.1487 7.76474 13.0204C7.60435 12.892 7.50209 12.7063 7.48045 12.5038C7.45881 12.3014 7.51959 12.0988 7.64935 11.9404C7.7792 11.7819 7.96748 11.6806 8.17302 11.6586C10.305 11.4382 12.4545 11.4382 14.5865 11.6586C14.6885 11.6692 14.7874 11.6995 14.8776 11.7476C14.9677 11.7958 15.0474 11.8611 15.1119 11.9396C15.1765 12.0181 15.2247 12.1084 15.2538 12.2052C15.2829 12.3021 15.2924 12.4036 15.2817 12.5041Z" fill="#543700"/>
</svg>
