<svg width="196" height="20" viewBox="0 0 196 20" fill="none" xmlns="http://www.w3.org/2000/svg">
<path d="M0 19.0231V0.49734H7.60925C8.88579 0.49734 10.013 0.72114 10.9911 1.16875C11.9858 1.61635 12.765 2.27946 13.3286 3.15809C13.8923 4.03672 14.1741 5.12252 14.1741 6.41562C14.1741 7.67552 13.884 8.74482 13.3038 9.62342C12.7401 10.5021 11.9609 11.1735 10.9663 11.6377C9.98819 12.0853 8.86919 12.3091 7.60925 12.3091H3.85436V19.0231H0ZM3.85436 8.95202H7.63411C8.44643 8.95202 9.09299 8.71992 9.57369 8.25582C10.0711 7.79162 10.3197 7.17822 10.3197 6.41562C10.3197 5.63652 10.0711 5.01481 9.57369 4.55063C9.09299 4.08645 8.44643 3.85436 7.63411 3.85436H3.85436V8.95202ZM21.8267 19.3215C20.4839 19.3215 19.2571 19.0148 18.1464 18.4014C17.0522 17.788 16.1819 16.9509 15.5354 15.8899C14.8888 14.8123 14.5656 13.5938 14.5656 12.2345C14.5656 10.8585 14.8888 9.64002 15.5354 8.57902C16.1819 7.51812 17.0522 6.68092 18.1464 6.06752C19.2571 5.45412 20.4839 5.14742 21.8267 5.14742C23.1695 5.14742 24.3879 5.45412 25.4821 6.06752C26.5928 6.68092 27.4714 7.51812 28.118 8.57902C28.7645 9.64002 29.0878 10.8585 29.0878 12.2345C29.0878 13.5938 28.7645 14.8123 28.118 15.8899C27.4714 16.9509 26.5928 17.788 25.4821 18.4014C24.3879 19.0148 23.1695 19.3215 21.8267 19.3215ZM21.8267 15.9645C22.8545 15.9645 23.6751 15.6163 24.2885 14.9201C24.9184 14.2238 25.2334 13.3286 25.2334 12.2345C25.2334 11.1569 24.9184 10.27 24.2885 9.57372C23.6751 8.86092 22.8545 8.50442 21.8267 8.50442C20.8154 8.50442 19.9948 8.86092 19.3648 9.57372C18.7349 10.27 18.4199 11.1569 18.4199 12.2345C18.4199 13.3286 18.7349 14.2238 19.3648 14.9201C19.9948 15.6163 20.8154 15.9645 21.8267 15.9645ZM30.5804 19.0231V5.44582H34.0617V7.48492C34.4099 6.63942 34.8989 6.06752 35.5289 5.76912C36.1754 5.45412 36.9131 5.29662 37.742 5.29662H39.1594V8.52932H37.369C36.4572 8.52932 35.7195 8.81112 35.1559 9.37482C34.5922 9.92182 34.3104 10.701 34.3104 11.7123V19.0231H30.5804ZM47.4103 19.1723C45.7691 19.1723 44.4926 18.733 43.5809 17.8544C42.6856 16.9592 42.238 15.7158 42.238 14.1243V8.67852H39.9006V5.44582H40.0746C41.5169 5.44582 42.238 4.74957 42.238 3.35702V1.36768H45.9681V5.44582H49.151V8.67852H45.9681V14.1243C45.9681 15.5003 46.7389 16.1883 48.2807 16.1883C48.5128 16.1883 48.8029 16.1634 49.151 16.1137V19.048C48.6039 19.1309 48.0237 19.1723 47.4103 19.1723ZM51.7208 19.0231V8.67852H49.4082V5.44582H51.7208V5.04792C51.7208 3.43991 52.1933 2.19657 53.1383 1.31795C54.0832 0.43932 55.4011 0 57.0921 0C57.5894 0 58.0287 0.0414501 58.41 0.12434V3.30729C58.095 3.25756 57.8215 3.23269 57.5894 3.23269C56.1637 3.23269 55.4509 3.83778 55.4509 5.04792V5.44582H58.3852V8.67852H55.4509V19.0231H51.7208ZM65.9274 19.3215C64.5846 19.3215 63.3578 19.0148 62.2471 18.4014C61.1529 17.788 60.2826 16.9509 59.6361 15.8899C58.9895 14.8123 58.6663 13.5938 58.6663 12.2345C58.6663 10.8585 58.9895 9.64002 59.6361 8.57902C60.2826 7.51812 61.1529 6.68092 62.2471 6.06752C63.3578 5.45412 64.5846 5.14742 65.9274 5.14742C67.2702 5.14742 68.4887 5.45412 69.5828 6.06752C70.6935 6.68092 71.5721 7.51812 72.2187 8.57902C72.8652 9.64002 73.1885 10.8585 73.1885 12.2345C73.1885 13.5938 72.8652 14.8123 72.2187 15.8899C71.5721 16.9509 70.6935 17.788 69.5828 18.4014C68.4887 19.0148 67.2702 19.3215 65.9274 19.3215ZM65.9274 15.9645C66.9552 15.9645 67.7758 15.6163 68.3892 14.9201C69.0192 14.2238 69.3341 13.3286 69.3341 12.2345C69.3341 11.1569 69.0192 10.27 68.3892 9.57372C67.7758 8.86092 66.9552 8.50442 65.9274 8.50442C64.9161 8.50442 64.0955 8.86092 63.4656 9.57372C62.8356 10.27 62.5206 11.1569 62.5206 12.2345C62.5206 13.3286 62.8356 14.2238 63.4656 14.9201C64.0955 15.6163 64.9161 15.9645 65.9274 15.9645ZM74.6811 19.0231V0.49734H78.4111V19.0231H74.6811ZM80.6491 4.22736V0.49734H84.3791V4.22736H80.6491ZM80.6491 19.0231V5.44582H84.3791V19.0231H80.6491ZM93.1323 19.3215C91.7894 19.3215 90.5627 19.0148 89.452 18.4014C88.3578 17.788 87.4875 16.9509 86.8409 15.8899C86.1944 14.8123 85.8711 13.5938 85.8711 12.2345C85.8711 10.8585 86.1944 9.64002 86.8409 8.57902C87.4875 7.51812 88.3578 6.68092 89.452 6.06752C90.5627 5.45412 91.7894 5.14742 93.1323 5.14742C94.4751 5.14742 95.6935 5.45412 96.7877 6.06752C97.8984 6.68092 98.777 7.51812 99.424 8.57902C100.07 9.64002 100.393 10.8585 100.393 12.2345C100.393 13.5938 100.07 14.8123 99.424 15.8899C98.777 16.9509 97.8984 17.788 96.7877 18.4014C95.6935 19.0148 94.4751 19.3215 93.1323 19.3215ZM93.1323 15.9645C94.1601 15.9645 94.9807 15.6163 95.5941 14.9201C96.224 14.2238 96.539 13.3286 96.539 12.2345C96.539 11.1569 96.224 10.27 95.5941 9.57372C94.9807 8.86092 94.1601 8.50442 93.1323 8.50442C92.121 8.50442 91.3004 8.86092 90.6704 9.57372C90.0405 10.27 89.7255 11.1569 89.7255 12.2345C89.7255 13.3286 90.0405 14.2238 90.6704 14.9201C91.3004 15.6163 92.121 15.9645 93.1323 15.9645ZM115.082 19.3215C113.756 19.3215 112.521 19.0811 111.377 18.6004C110.25 18.1196 109.264 17.4482 108.418 16.5862C107.573 15.7241 106.91 14.7129 106.429 13.5524C105.965 12.3919 105.733 11.1237 105.733 9.74782C105.733 8.37182 105.965 7.10362 106.429 5.94322C106.893 4.76615 107.548 3.7549 108.393 2.90942C109.239 2.04737 110.225 1.38426 111.352 0.92008C112.496 0.43932 113.74 0.19894 115.082 0.19894C116.425 0.19894 117.627 0.42274 118.688 0.87034C119.766 1.31795 120.677 1.91475 121.424 2.66075C122.17 3.40676 122.7 4.23565 123.015 5.14742L119.608 6.78862C119.293 5.89342 118.738 5.15572 117.942 4.5755C117.163 3.9787 116.21 3.68029 115.082 3.68029C113.988 3.68029 113.027 3.93725 112.198 4.45117C111.369 4.96508 110.722 5.67792 110.258 6.58972C109.811 7.48492 109.587 8.53762 109.587 9.74782C109.587 10.958 109.811 12.0189 110.258 12.9307C110.722 13.8425 111.369 14.5554 112.198 15.0693C113.027 15.5832 113.988 15.8401 115.082 15.8401C116.21 15.8401 117.163 15.55 117.942 14.9698C118.738 14.373 119.293 13.627 119.608 12.7318L123.015 14.373C122.7 15.2848 122.17 16.1137 121.424 16.8597C120.677 17.6057 119.766 18.2025 118.688 18.6501C117.627 19.0977 116.425 19.3215 115.082 19.3215ZM124.75 19.0231V5.44582H128.231V7.48492C128.579 6.63942 129.068 6.06752 129.698 5.76912C130.345 5.45412 131.083 5.29662 131.911 5.29662H133.329V8.52932H131.538C130.627 8.52932 129.889 8.81112 129.325 9.37482C128.762 9.92182 128.48 10.701 128.48 11.7123V19.0231H124.75ZM140.945 19.3215C139.519 19.3215 138.268 19.0065 137.19 18.3766C136.129 17.73 135.3 16.868 134.703 15.7904C134.123 14.7129 133.833 13.5192 133.833 12.2096C133.833 10.8502 134.131 9.64002 134.728 8.57902C135.342 7.51812 136.162 6.68092 137.19 6.06752C138.234 5.45412 139.403 5.14742 140.696 5.14742C141.973 5.14742 143.117 5.44582 144.128 6.04262C145.139 6.63942 145.943 7.44352 146.54 8.45472C147.137 9.44942 147.435 10.5767 147.435 11.8366C147.435 12.1018 147.419 12.3671 147.385 12.6323C147.369 12.881 147.327 13.0965 147.261 13.2789H137.712C137.828 14.1243 138.176 14.804 138.757 15.3179C139.337 15.8319 140.083 16.0888 140.995 16.0888C141.658 16.0888 142.221 15.9562 142.686 15.6909C143.166 15.4257 143.539 15.061 143.805 14.5968L146.789 16.0142C146.374 17.0089 145.645 17.8129 144.6 18.4263C143.556 19.0231 142.337 19.3215 140.945 19.3215ZM140.696 8.13142C139.967 8.13142 139.345 8.33872 138.831 8.75312C138.317 9.16762 137.969 9.76442 137.787 10.5435H143.481C143.415 9.81412 143.125 9.23392 142.611 8.80282C142.114 8.35522 141.475 8.13142 140.696 8.13142ZM152.959 19.3215C151.931 19.3215 151.036 19.1474 150.274 18.7993C149.528 18.4346 148.947 17.9538 148.533 17.357C148.135 16.7436 147.936 16.0639 147.936 15.3179C147.936 14.3067 148.317 13.4778 149.08 12.8313C149.843 12.1681 150.912 11.6957 152.288 11.4139L156.54 10.5186V10.071C156.54 9.55712 156.349 9.15102 155.968 8.85262C155.587 8.53762 155.081 8.38012 154.451 8.38012C153.788 8.38012 153.2 8.56252 152.686 8.92722C152.188 9.27532 151.84 9.75612 151.641 10.3694L148.434 8.82772C148.831 7.70042 149.569 6.80522 150.647 6.14212C151.741 5.47902 153.009 5.14742 154.451 5.14742C155.612 5.14742 156.623 5.35462 157.485 5.76912C158.364 6.18352 159.043 6.76382 159.524 7.50982C160.021 8.23922 160.27 9.09302 160.27 10.071V19.0231H156.789V17.7798C156.275 18.3268 155.703 18.7247 155.073 18.9734C154.46 19.2055 153.755 19.3215 152.959 19.3215ZM151.791 15.2682C151.791 15.6827 151.948 16.0059 152.263 16.238C152.578 16.4701 153.001 16.5862 153.531 16.5862C154.377 16.5862 155.09 16.3209 155.67 15.7904C156.25 15.2599 156.54 14.6134 156.54 13.8508V13.2043L152.959 14C152.18 14.1824 151.791 14.6051 151.791 15.2682ZM168.523 19.1723C166.882 19.1723 165.606 18.733 164.694 17.8544C163.799 16.9592 163.351 15.7158 163.351 14.1243V8.67852H161.014V5.44582H161.188C162.63 5.44582 163.351 4.74957 163.351 3.35702V1.36768H167.081V5.44582H170.264V8.67852H167.081V14.1243C167.081 15.5003 167.852 16.1883 169.394 16.1883C169.626 16.1883 169.916 16.1634 170.264 16.1137V19.048C169.717 19.1309 169.137 19.1723 168.523 19.1723ZM178.28 19.3215C176.937 19.3215 175.71 19.0148 174.599 18.4014C173.505 17.788 172.635 16.9509 171.988 15.8899C171.342 14.8123 171.019 13.5938 171.019 12.2345C171.019 10.8585 171.342 9.64002 171.988 8.57902C172.635 7.51812 173.505 6.68092 174.599 6.06752C175.71 5.45412 176.937 5.14742 178.28 5.14742C179.623 5.14742 180.841 5.45412 181.935 6.06752C183.046 6.68092 183.925 7.51812 184.571 8.57902C185.218 9.64002 185.541 10.8585 185.541 12.2345C185.541 13.5938 185.218 14.8123 184.571 15.8899C183.925 16.9509 183.046 17.788 181.935 18.4014C180.841 19.0148 179.623 19.3215 178.28 19.3215ZM178.28 15.9645C179.308 15.9645 180.128 15.6163 180.742 14.9201C181.372 14.2238 181.686 13.3286 181.686 12.2345C181.686 11.1569 181.372 10.27 180.742 9.57372C180.128 8.86092 179.308 8.50442 178.28 8.50442C177.268 8.50442 176.448 8.86092 175.818 9.57372C175.188 10.27 174.873 11.1569 174.873 12.2345C174.873 13.3286 175.188 14.2238 175.818 14.9201C176.448 15.6163 177.268 15.9645 178.28 15.9645ZM187.033 19.0231V5.44582H190.515V7.48492C190.863 6.63942 191.352 6.06752 191.982 5.76912C192.628 5.45412 193.366 5.29662 194.195 5.29662H195.612V8.52932H193.822C192.91 8.52932 192.173 8.81112 191.609 9.37482C191.045 9.92182 190.763 10.701 190.763 11.7123V19.0231H187.033Z" fill="black"/>
</svg>
