<svg width="18" height="20" viewBox="0 0 18 20" fill="none" xmlns="http://www.w3.org/2000/svg">
<path d="M8.30762 0.769531C8.30762 0.72881 8.31712 0.688261 8.33594 0.651367C8.35483 0.614357 8.38277 0.581506 8.41797 0.555664C8.45297 0.530027 8.49383 0.511627 8.53809 0.503906H8.53906C8.58297 0.496382 8.62821 0.499192 8.6709 0.511719H8.67188L16.4844 2.81934C16.5435 2.83689 16.5938 2.8726 16.6289 2.91895C16.6639 2.96527 16.6826 3.0211 16.6826 3.07715V7.69238C16.6826 7.7329 16.6723 7.77332 16.6533 7.81055C16.6345 7.84735 16.6073 7.88055 16.5723 7.90625C16.5372 7.93196 16.4955 7.94934 16.4512 7.95703C16.4069 7.96469 16.3613 7.96191 16.3184 7.94922L9.51172 5.93848L8.87012 5.74902V14.6152C8.8706 15.5548 8.54359 16.4677 7.94238 17.2002C7.34083 17.933 6.50032 18.4419 5.56152 18.6396C4.62283 18.8373 3.64338 18.7115 2.78809 18.2842C1.933 17.8568 1.25456 17.1544 0.864258 16.2959C0.473955 15.4376 0.394902 14.4739 0.639648 13.5654V13.5645C0.884546 12.656 1.43941 11.8564 2.21289 11.2998C2.98652 10.7431 3.93162 10.4634 4.89062 10.5098C5.84969 10.5562 6.76249 10.9261 7.47656 11.5547L8.30762 12.2852V0.769531Z" fill="#0033B6" stroke="black"/>
</svg>
