<svg width="19" height="22" viewBox="0 0 19 22" fill="none" xmlns="http://www.w3.org/2000/svg">
<path d="M18.2577 13.069L15.3049 9.52563C15.2105 8.35845 14.948 7.2111 14.5256 6.11899C13.3911 3.1686 11.3853 1.23634 10.2907 0.347039C10.0131 0.123601 9.6678 0.00118037 9.31148 8.49689e-06C8.95515 -0.00116338 8.60898 0.118914 8.32991 0.340476C7.22101 1.22884 5.18952 3.15977 4.04359 6.11056C3.60702 7.22735 3.34046 8.40337 3.2528 9.59923L0.3614 13.069C0.209134 13.2529 0.100695 13.4691 0.044367 13.7011C-0.0119612 13.9331 -0.0146944 14.1749 0.0363993 14.4082L1.24374 19.8411C1.30101 20.1003 1.42335 20.3407 1.59937 20.5395C1.7753 20.7382 1.99905 20.8888 2.24944 20.977C2.49984 21.0652 2.76859 21.0881 3.0303 21.0435C3.29202 20.999 3.53804 20.8884 3.74507 20.7223L6.45859 18.5515H12.1605L14.874 20.7223C15.1498 20.9442 15.493 21.0654 15.8471 21.0657C16.025 21.0656 16.2016 21.0352 16.3692 20.9759C16.6199 20.8885 16.8441 20.7384 17.0202 20.5397C17.1963 20.341 17.3186 20.1006 17.3754 19.8412L18.5827 14.4083C18.6338 14.175 18.6311 13.9332 18.5748 13.7011C18.5184 13.4691 18.41 13.2529 18.2577 13.069ZM2.76905 19.5022L1.56171 14.0692L3.31234 11.9684C3.53429 13.7938 4.15734 15.6617 5.18156 17.5722L2.76905 19.5022ZM9.30952 9.56712C9.0778 9.56712 8.85124 9.49837 8.65851 9.36962C8.46577 9.24087 8.31562 9.05782 8.22687 8.84368C8.13819 8.62954 8.11499 8.39391 8.16023 8.16665C8.20538 7.93931 8.31702 7.73048 8.48093 7.56665C8.64484 7.40274 8.85359 7.2911 9.08093 7.24587C9.30827 7.20071 9.5439 7.22392 9.75804 7.31259C9.97218 7.40126 10.1551 7.55149 10.2839 7.74423C10.4127 7.93688 10.4814 8.16345 10.4814 8.39524C10.4814 8.70602 10.358 9.00415 10.1382 9.22392C9.91843 9.44368 9.62038 9.56712 9.30952 9.56712ZM15.8501 19.5022L13.4331 17.5686C14.4442 15.6446 15.0543 13.7606 15.2635 11.9166L17.0574 14.0692L15.8501 19.5022Z" fill="#D10094"/>
</svg>
